<svg width="24" height="24" viewBox="0 0 24 24" fill="none" xmlns="http://www.w3.org/2000/svg">
<path d="M18.487 0.0049936L15.3747 0C11.8782 0 9.61861 2.31828 9.61861 5.90643V8.62969H6.48937C6.21897 8.62969 6 8.84891 6 9.11932V13.065C6 13.3354 6.21922 13.5544 6.48937 13.5544H9.61861V23.5106C9.61861 23.781 9.83758 24 10.108 24H14.1908C14.4612 24 14.6801 23.7808 14.6801 23.5106V13.5544H18.3389C18.6093 13.5544 18.8283 13.3354 18.8283 13.065L18.8298 9.11932C18.8298 8.98948 18.7781 8.86514 18.6865 8.77326C18.5949 8.68138 18.47 8.62969 18.3402 8.62969H14.6801V6.32115C14.6801 5.21157 14.9445 4.64829 16.3899 4.64829L18.4865 4.64755C18.7567 4.64755 18.9756 4.42833 18.9756 4.15817V0.494367C18.9756 0.224462 18.7569 0.00549296 18.487 0.0049936Z" fill="black"/>
</svg>
