<svg width="24" height="24" viewBox="0 0 24 24" fill="none" xmlns="http://www.w3.org/2000/svg">
<path d="M17.5153 0H6.48473C2.90906 0 0 2.90906 0 6.48473V17.5153C0 21.0909 2.90906 24 6.48473 24H17.5153C21.0909 24 24 21.0909 24 17.5153V6.48473C24 2.90906 21.0909 0 17.5153 0ZM22.0611 17.5153C22.0611 20.0218 20.0219 22.0611 17.5153 22.0611H6.48473C3.97819 22.0611 1.93894 20.0219 1.93894 17.5153V6.48473C1.93894 3.97819 3.97814 1.93894 6.48473 1.93894H17.5153C20.0218 1.93894 22.0611 3.97814 22.0611 6.48473V17.5153Z" fill="black"/>
<path d="M17.3714 11.1636C17.2007 10.013 16.6758 8.9701 15.8533 8.14759C15.0307 7.32512 13.9879 6.80012 12.8373 6.62954C12.3134 6.55187 11.7823 6.55187 11.2584 6.62954C9.83644 6.84043 8.58173 7.5924 7.72537 8.74698C6.86901 9.90155 6.51347 11.3206 6.72436 12.7425C6.93525 14.1644 7.68722 15.4191 8.84179 16.2755C9.77911 16.9707 10.8905 17.3358 12.0365 17.3358C12.3021 17.3358 12.5697 17.3162 12.8372 17.2765C14.2592 17.0656 15.5139 16.3136 16.3703 15.159C17.2267 14.0045 17.5822 12.5856 17.3714 11.1636ZM12.5528 15.3585C11.6432 15.4936 10.7355 15.266 9.99689 14.7182C9.25828 14.1704 8.77725 13.3677 8.64239 12.4581C8.50748 11.5485 8.73487 10.6407 9.2827 9.90212C9.83058 9.16351 10.6332 8.68248 11.5429 8.54757C11.7104 8.52273 11.8791 8.51031 12.0478 8.51031C12.2165 8.51031 12.3853 8.52273 12.5528 8.54762C14.0636 8.77163 15.2293 9.93723 15.4533 11.4481C15.7318 13.3258 14.4307 15.0801 12.5528 15.3585Z" fill="black"/>
<path d="M18.7522 5.24784C18.5717 5.06732 18.3218 4.96387 18.0667 4.96387C17.8116 4.96387 17.5617 5.06727 17.3811 5.24784C17.2006 5.4284 17.0972 5.67787 17.0972 5.93339C17.0972 6.1889 17.2006 6.43837 17.3811 6.61894C17.5617 6.79945 17.8116 6.90291 18.0667 6.90291C18.3218 6.90291 18.5717 6.7995 18.7522 6.61894C18.9327 6.43837 19.0362 6.18848 19.0362 5.93339C19.0362 5.67824 18.9327 5.42835 18.7522 5.24784Z" fill="black"/>
</svg>
